# xmcd
#
# Track frame offsets:
#	150
#	37044
#	50609
#	62597
#	74891
#	89291
#	105330
#	118891
#	129157
#	140097
#	164612
#	180200
#	192715
#	209127
#	221240
#	237876
#	252039
#	268272
#	282512
#	293480
#	308897
#	324432
#
# Disc length: 4456 seconds
#
# Revision: 0
# Processed by: cddbd v1.5.2PL0 Copyright (c) Steve Scherf et al.
# Submitted via: EasyCDDAExtractor 10.0.1.1
#
DISCID=64116616
DTITLE=Valentín Elizalde - 22 Exitos: Volumen 1
DYEAR=1900
DGENRE=Banda
TTITLE0=La Yaquesita
TTITLE1=El Sinaloense
TTITLE2=Mi Virgencita
TTITLE3=Los Pajaros
TTITLE4=Pavido Navido
TTITLE5=Las Tacualinas
TTITLE6=La Primavera
TTITLE7=Corazon de Oro
TTITLE8=Destino Cruel
TTITLE9=Mi Casa Nueva
TTITLE10=Hola y Adios
TTITLE11=Catarino y Los Rurales
TTITLE12=Una Noche Para Dos
TTITLE13=El Palmero
TTITLE14=El Palmero 2
TTITLE15=Encendido Clavel
TTITLE16=Mi Amante
TTITLE17=Vete Con El
TTITLE18=Y Se Parece a ti
TTITLE19=Los Sinaloenses
TTITLE20=El Señor
TTITLE21=La Bamba
EXTD=
EXTT0=
EXTT1=
EXTT2=
EXTT3=
EXTT4=
EXTT5=
EXTT6=
EXTT7=
EXTT8=
EXTT9=
EXTT10=
EXTT11=
EXTT12=
EXTT13=
EXTT14=
EXTT15=
EXTT16=
EXTT17=
EXTT18=
EXTT19=
EXTT20=
EXTT21=
PLAYORDER=
